<svg xmlns="http://www.w3.org/2000/svg" id="Layer_1" data-name="Layer 1" viewBox="0 0 1024 900"><defs><style>.cls-1{fill:#000000;}</style></defs><title>saudi riyal new symbol By Emran Alhaddad</title><path class="cls-1" d="M596.84,735.56h0A283.77,283.77,0,0,0,573.16,824L835,768.32a284,284,0,0,0,23.69-88.42Z"/><path class="cls-1" d="M835,601.58a284.06,284.06,0,0,0,23.69-88.42l-204,43.37V473.15L835,434.84a283.83,283.83,0,0,0,23.68-88.43L654.71,389.75V89.87a287.82,287.82,0,0,0-81.57,68.45V407.1l-81.57,17.33V49.08A287.65,287.65,0,0,0,410,117.54V441.77L227.5,480.55A284,284,0,0,0,203.8,569L410,525.15v105l-221,47a284.12,284.12,0,0,0-23.69,88.43l231.32-49.16A73.43,73.43,0,0,0,442.18,686l42.42-62.89h0a40.49,40.49,0,0,0,7-22.8V507.81l81.57-17.33V657.25L835,601.57Z"/></svg>